<svg height="512" viewBox="0 0 64 64" width="512" xmlns="http://www.w3.org/2000/svg"><g id="_24_hour" data-name="24 hour"><path d="m25 45h-4v-5h-2v6a1 1 0 0 0 1 1h5v5h2v-12h-2z"/><path d="m16 40h-7v2h6v3h-5a1 1 0 0 0 -1 1v5a1 1 0 0 0 1 1h7v-2h-6v-3h5a1 1 0 0 0 1-1v-5a1 1 0 0 0 -1-1z"/><path d="m18 30a16 16 0 1 0 16 16 16.027 16.027 0 0 0 -16-16zm3.76 29.49a14 14 0 1 1 10.24-13.49 14.03 14.03 0 0 1 -10.24 13.49z"/><path d="m17 20v8h2v-7h5v-2h-6a1 1 0 0 0 -1 1z"/><path d="m45 46v-6h-2v5h-7v2h8a1 1 0 0 0 1-1z"/><path d="m9 24a15.017 15.017 0 0 1 15-15v-2a17.019 17.019 0 0 0 -17 17v6h2z"/><path d="m55 40a15.017 15.017 0 0 1 -15 15v2a17.019 17.019 0 0 0 17-17v-3h-2z"/><path d="m36 55h2v2h-2z"/><path d="m61.16 16.01-3.95-.66a13.338 13.338 0 0 0 -.59-1.4l2.34-3.27a1.015 1.015 0 0 0 -.11-1.29l-4.24-4.24a1 1 0 0 0 -1.29-.11l-3.27 2.34a13.338 13.338 0 0 0 -1.4-.59l-.66-3.95a1 1 0 0 0 -.99-.84h-6a1 1 0 0 0 -.99.84l-.66 3.95a13.338 13.338 0 0 0 -1.4.59l-3.27-2.34a1 1 0 0 0 -1.29.11l-4.24 4.24a1.015 1.015 0 0 0 -.11 1.29l2.34 3.27a13.275 13.275 0 0 0 -.57 1.4l-3.97.66a1 1 0 0 0 -.84.99v6a1 1 0 0 0 .84.99l3.95.66a13.338 13.338 0 0 0 .59 1.4l-2.34 3.27a1.015 1.015 0 0 0 .11 1.29l4.24 4.24a1 1 0 0 0 1.29.11l3.27-2.34a13.338 13.338 0 0 0 1.4.59l.66 3.95a1 1 0 0 0 .99.84h6a1 1 0 0 0 .99-.84l.66-3.95a13.338 13.338 0 0 0 1.4-.59l3.27 2.34a1 1 0 0 0 1.29-.11l4.24-4.24a1.015 1.015 0 0 0 .11-1.29l-2.34-3.27a13.338 13.338 0 0 0 .59-1.4l3.95-.66a1 1 0 0 0 .84-.99v-6a1 1 0 0 0 -.84-.99zm-1.16 6.14-3.72.62a1.012 1.012 0 0 0 -.79.7 12.564 12.564 0 0 1 -.91 2.2 1 1 0 0 0 .06 1.05l2.2 3.07-3.05 3.05-3.07-2.2a1 1 0 0 0 -1.05-.06 12.564 12.564 0 0 1 -2.2.91 1.012 1.012 0 0 0 -.7.79l-.62 3.72h-4.3l-.62-3.72a1.012 1.012 0 0 0 -.7-.79 12.564 12.564 0 0 1 -2.2-.91 1 1 0 0 0 -1.05.06l-3.07 2.2-3.05-3.05 2.2-3.07a1 1 0 0 0 .06-1.05 12.564 12.564 0 0 1 -.91-2.2 1.012 1.012 0 0 0 -.79-.7l-3.72-.62v-4.3l3.72-.62a1.025 1.025 0 0 0 .78-.67 14.763 14.763 0 0 1 .92-2.23 1 1 0 0 0 -.06-1.05l-2.2-3.07 3.05-3.05 3.07 2.2a1 1 0 0 0 1.05.06 12.564 12.564 0 0 1 2.2-.91 1.012 1.012 0 0 0 .7-.79l.62-3.72h4.3l.62 3.72a1.012 1.012 0 0 0 .7.79 12.564 12.564 0 0 1 2.2.91 1 1 0 0 0 1.05-.06l3.07-2.2 3.05 3.05-2.2 3.07a1 1 0 0 0 -.06 1.05 12.564 12.564 0 0 1 .91 2.2 1.012 1.012 0 0 0 .79.7l3.72.62z"/><path d="m44 11a9 9 0 1 0 9 9 9.011 9.011 0 0 0 -9-9zm0 16a7 7 0 1 1 7-7 7.008 7.008 0 0 1 -7 7z"/><path d="m26 7h2v2h-2z"/></g></svg>