<svg width="626" height="285" viewBox="0 0 626 285" fill="none" xmlns="http://www.w3.org/2000/svg">
<path d="M249.5 101.5L259 84L266 86L276 91.5L292.5 103L290 114.5L263.5 119.5L252 124.5L249.5 101.5Z" fill="black" stroke="white"/>
<path d="M252.5 124.5L257 137.5L265.5 130.5L278.5 123.5L292 118L290.5 114.5L264 119L252.5 124.5Z" fill="white" stroke="white"/>
<path d="M289.582 165.031L303.048 167.843L301.404 156.955L302.071 142.206L304.282 127.797L300.508 127.287L290.765 152.339L289.582 165.031Z" fill="white" stroke="white"/>
<path d="M342.034 150.515L350.816 139.926L340.423 136.288L327.696 128.803L315.993 120.112L313.778 123.21L331.367 143.535L342.034 150.515Z" fill="white" stroke="white"/>
<path d="M357.339 98.9657L351.908 86.3265L343.938 93.9249L331.48 101.85L318.415 108.315L320.165 111.697L346.269 105.286L357.339 98.9657Z" fill="white" stroke="white"/>
<path d="M319.353 59.9431L305.412 57.9876L308.109 68.7199L308.824 83.4397L307.939 97.9169L311.82 98.1878L319.349 72.648L319.353 59.9431Z" fill="white" stroke="white"/>
<path d="M267.374 72.1727L258.207 82.8564L268.698 86.3752L281.478 93.7137L293.191 102.269L295.512 99.1474L278.069 79.03L267.374 72.1727Z" fill="white" stroke="white"/>
<path d="M268.251 155.067L257.956 138.023L263.221 132.994L273.022 127.148L291.287 118.727L299.944 126.698L290.859 152.09L289.358 164.539L268.251 155.067Z" fill="black" stroke="white"/>
<path d="M322.753 165.733L302.849 166.324L301.057 159.268L300.781 147.859L302.422 127.814L313.619 124.19L332 144L343 150.5L322.753 165.733Z" fill="black" stroke="white"/>
<path d="M360.079 124.356L353 139L345 138L334.5 133L317.5 122L319.638 111.173L346 105L357.21 99.1812L359.5 111.5L360.079 124.356Z" fill="black" stroke="white"/>
<path d="M344.028 69.5298L353.263 82.9191L351 87.5L345 93L337.5 98.1774L318.5 107L312.587 98.1774L317 84.9999L320 71.4999L320 59L332.565 63.6816L344.028 69.5298Z" fill="black" stroke="white"/>
<path d="M287.396 58.6842L303.591 57.185L306.478 61.4005L308.338 70L308.338 79L307.575 99.2858L296.987 100.124L287.657 89.8256L278.5 80L267.5 71.5L276.685 65.8182L287.396 58.6842Z" fill="black" stroke="white"/>
<path d="M303.436 168.002C293.436 141 318.436 78 303.436 56" stroke="white" stroke-width="2"/>
<path d="M289.353 168.816C286.731 139.965 327.299 85.1585 318.543 59.8781" stroke="white" stroke-width="2"/>
<path d="M256.218 139.111C274.603 116.95 341.662 107.1 353.215 83.11" stroke="white" stroke-width="2"/>
<path d="M250.924 125.48C274.418 108.832 341.742 116.675 359.11 96.492" stroke="white" stroke-width="2"/>
<path d="M257.463 83.1099C285.847 87.9508 327.907 141.101 354.459 139.111" stroke="white" stroke-width="2"/>
<path d="M266.62 71.7095C292.784 83.7319 319.655 145.957 345.818 150.907" stroke="white" stroke-width="2"/>
<path d="M520 125H531V148C531 150.761 528.761 153 526 153H525C522.239 153 520 150.761 520 148V125Z" fill="white"/>
<path d="M205 118H212V143C212 144.657 210.657 146 209 146H208C206.343 146 205 144.657 205 143V118Z" fill="white"/>
<path d="M398 118H405V143C405 144.657 403.657 146 402 146H401C399.343 146 398 144.657 398 143V118Z" fill="white"/>
<path d="M105.619 107.071C111.031 102.505 117.884 100 124.965 100H246V115L98 113.5L105.619 107.071Z" fill="#F5C700"/>
<path d="M34 150H134V152C134 154.761 131.761 157 129 157H39C36.2386 157 34 154.761 34 152V150Z" fill="#F5C700"/>
<path d="M178 144H239V146C239 148.761 236.761 151 234 151H183C180.239 151 178 148.761 178 146V144Z" fill="white"/>
<path d="M371 144H432V146C432 148.761 429.761 151 427 151H376C373.239 151 371 148.761 371 146V144Z" fill="white"/>
<path d="M476 155H576V157C576 159.761 573.761 162 571 162H481C478.239 162 476 159.761 476 157V155Z" fill="#F5C700"/>
<path d="M363 100H477.318C482.664 100 487.913 101.428 492.521 104.137L511 115H363V100Z" fill="#F5C700"/>
<path d="M360 112H526C535.941 112 544 120.059 544 130H360V112Z" fill="white"/>
<path d="M65 130C65 120.059 73.0589 112 83 112H249V130H65Z" fill="white"/>
<circle cx="305" cy="112" r="57" stroke="white" stroke-width="8"/>
<path d="M79 125H90V148C90 150.761 87.7614 153 85 153H84C81.2386 153 79 150.761 79 148V125Z" fill="white"/>
<path d="M29 153C29 146.925 33.9249 142 40 142H129C135.075 142 140 146.925 140 153H29Z" fill="white"/>
<path d="M174 147C174 142.582 177.582 139 182 139H236C240.418 139 244 142.582 244 147H174Z" fill="#F5C700"/>
<path d="M367 147C367 142.582 370.582 139 375 139H429C433.418 139 437 142.582 437 147H367Z" fill="#F5C700"/>
<path d="M470 158C470 151.925 474.925 147 481 147H570C576.075 147 581 151.925 581 158H470Z" fill="white"/>
<circle cx="305" cy="112" r="16" fill="white"/>
<path d="M142.36 91.896C132.077 91.896 126.936 88.1627 126.936 80.696C126.936 79.544 127.064 78.3067 127.32 76.984L128.152 72.248H139.672L139.288 74.36C139.117 75.4267 139.032 76.5147 139.032 77.624C139.032 78.7333 139.309 79.6507 139.864 80.376C140.717 81.4427 142.125 81.976 144.088 81.976C146.051 81.976 147.629 81.4427 148.824 80.376C150.061 79.3093 150.936 77.3467 151.448 74.488L156.696 44.856H168.152L162.776 75.384C161.795 81.0587 159.661 85.24 156.376 87.928C153.091 90.5733 148.419 91.896 142.36 91.896ZM181.774 91.896C172.899 91.896 168.462 88.824 168.462 82.68C168.462 81.8267 168.547 80.9093 168.718 79.928L170.062 71.992C170.787 67.896 172.664 64.76 175.694 62.584C178.766 60.3653 182.819 59.256 187.854 59.256C196.43 59.256 200.718 62.4987 200.718 68.984C200.718 69.9227 200.632 70.9467 200.462 72.056L199.694 76.6H180.174L179.918 78.072C179.832 78.584 179.79 79.0533 179.79 79.48C179.79 81.8267 181.176 83 183.95 83C184.974 83 185.848 82.68 186.574 82.04C187.299 81.4 187.726 80.6533 187.854 79.8L198.478 79.928C197.07 87.9067 191.502 91.896 181.774 91.896ZM189.454 72.696C189.624 71.9707 189.71 71.3093 189.71 70.712C189.71 70.072 189.432 69.432 188.878 68.792C188.323 68.152 187.427 67.832 186.19 67.832C184.995 67.832 183.886 68.2373 182.862 69.048C181.88 69.8587 181.198 71.0747 180.814 72.696H189.454ZM217.854 91.896C212.905 91.896 209.342 90.7867 207.166 88.568C205.545 86.9467 204.734 84.7707 204.734 82.04C204.734 81.144 204.819 80.184 204.99 79.16L209.342 54.392L221.054 49.528L219.198 60.216H236.862L235.262 69.24H217.598L216.318 76.472C216.147 77.2827 216.062 78.008 216.062 78.648C216.062 81.336 217.342 82.68 219.902 82.68C221.267 82.68 222.398 82.104 223.294 80.952C224.233 79.8 224.873 78.264 225.214 76.344H235.838C234.046 86.712 228.051 91.896 217.854 91.896ZM378.283 91.896C372.182 91.896 367.958 90.5733 365.611 87.928C363.99 86.0507 363.179 83.4267 363.179 80.056C363.179 78.6053 363.328 77.048 363.627 75.384L366.251 60.664C368.171 49.8693 375.104 44.472 387.051 44.472C392 44.472 395.755 45.5387 398.315 47.672C400.875 49.7627 402.155 52.6427 402.155 56.312C402.155 58.0187 401.899 59.7253 401.387 61.432C400.918 63.096 400.448 64.3333 399.979 65.144L399.275 66.424H387.947C389.355 64.8027 390.059 62.4987 390.059 59.512C390.059 57.9333 389.654 56.696 388.843 55.8C388.032 54.8613 386.838 54.392 385.259 54.392C380.95 54.392 378.39 56.7813 377.579 61.56L375.339 74.488C375.126 75.5973 375.019 76.6853 375.019 77.752C375.019 80.568 376.704 81.976 380.075 81.976C384.128 81.976 386.56 79.6933 387.371 75.128H398.891L398.571 76.984C396.864 86.9253 390.102 91.896 378.283 91.896ZM415.625 81.144C415.625 82.2533 416.179 82.808 417.289 82.808C418.441 82.808 419.401 82.5947 420.169 82.168L419.849 89.4C417.801 91.064 415.497 91.896 412.937 91.896C409.054 91.896 406.537 91 405.385 89.208C404.659 88.056 404.297 86.7973 404.297 85.432C404.297 84.0667 404.382 82.872 404.553 81.848L411.529 42.424H422.409L415.689 80.376C415.646 80.632 415.625 80.888 415.625 81.144ZM437.086 91.896C428.211 91.896 423.774 88.824 423.774 82.68C423.774 81.8267 423.859 80.9093 424.03 79.928L425.374 71.992C426.099 67.896 427.977 64.76 431.006 62.584C434.078 60.3653 438.131 59.256 443.166 59.256C451.742 59.256 456.03 62.4987 456.03 68.984C456.03 69.9227 455.945 70.9467 455.774 72.056L455.006 76.6H435.486L435.23 78.072C435.145 78.584 435.102 79.0533 435.102 79.48C435.102 81.8267 436.489 83 439.262 83C440.286 83 441.161 82.68 441.886 82.04C442.611 81.4 443.038 80.6533 443.166 79.8L453.79 79.928C452.382 87.9067 446.814 91.896 437.086 91.896ZM444.766 72.696C444.937 71.9707 445.022 71.3093 445.022 70.712C445.022 70.072 444.745 69.432 444.19 68.792C443.635 68.152 442.739 67.832 441.502 67.832C440.307 67.832 439.198 68.2373 438.174 69.048C437.193 69.8587 436.51 71.0747 436.126 72.696H444.766ZM489.487 81.144C489.487 82.2533 490.041 82.808 491.151 82.808C492.303 82.808 493.263 82.5947 494.031 82.168L493.711 89.4C491.663 91.064 489.359 91.896 486.799 91.896C482.105 91.896 479.503 90.1893 478.991 86.776C476.857 90.1893 473.721 91.896 469.583 91.896C462.585 91.896 459.087 88.888 459.087 82.872C459.087 81.848 459.193 80.7173 459.407 79.48L460.751 71.992C461.433 68.152 462.991 65.1013 465.423 62.84C467.897 60.536 471.097 59.384 475.023 59.384C478.991 59.384 481.679 60.3013 483.087 62.136L483.407 60.216H493.135L489.551 80.376C489.508 80.632 489.487 80.888 489.487 81.144ZM470.543 78.072C470.457 78.456 470.415 78.9893 470.415 79.672C470.415 80.3547 470.735 81.0373 471.375 81.72C472.015 82.36 473.081 82.68 474.575 82.68C476.111 82.68 477.433 82.0827 478.543 80.888L480.463 70.136C479.993 69.0693 478.884 68.536 477.135 68.536C473.849 68.536 471.929 70.1147 471.375 73.272L470.543 78.072ZM518.579 71.352C518.579 69.5173 517.683 68.6 515.891 68.6C514.141 68.6 512.691 69.2613 511.539 70.584L507.955 91H497.075L502.515 60.216H512.627L511.923 63.992C514.44 60.8773 517.619 59.32 521.459 59.32C525.299 59.32 527.795 60.2587 528.947 62.136C529.672 63.3307 530.035 64.696 530.035 66.232C530.035 67.768 529.928 69.1973 529.715 70.52L527.987 80.376C527.944 80.632 527.923 80.8667 527.923 81.08C527.923 82.232 528.563 82.808 529.843 82.808C530.824 82.808 531.699 82.5947 532.467 82.168L532.147 89.4C530.141 91.064 527.859 91.896 525.299 91.896C519.496 91.896 516.595 89.464 516.595 84.6C516.595 83.7467 516.68 82.8293 516.851 81.848L518.387 73.336C518.515 72.568 518.579 71.9067 518.579 71.352Z" fill="white"/>
<path d="M213.016 177.72L215.584 186L221.104 177.72H225.64L222.592 195H218.248L219.976 185.256L216.28 191.064H213.136L211.504 185.256L209.776 195H205.456L208.504 177.72H213.016ZM237.651 191.304C237.651 191.72 237.859 191.928 238.275 191.928C238.707 191.928 239.067 191.848 239.355 191.688L239.235 194.4C238.467 195.024 237.603 195.336 236.643 195.336C234.835 195.336 233.851 194.64 233.691 193.248C232.731 194.64 231.435 195.336 229.803 195.336C228.187 195.336 227.139 194.968 226.659 194.232C226.339 193.768 226.179 193.24 226.179 192.648C226.179 192.056 226.227 191.512 226.323 191.016L227.667 183.456H231.747L230.619 189.84C230.571 190.128 230.547 190.416 230.547 190.704C230.547 191.472 230.979 191.856 231.843 191.856C232.563 191.856 233.139 191.608 233.571 191.112L234.939 183.456H239.019L237.675 191.016C237.659 191.112 237.651 191.208 237.651 191.304ZM245.312 191.304C245.312 191.72 245.52 191.928 245.936 191.928C246.368 191.928 246.728 191.848 247.016 191.688L246.896 194.4C246.128 195.024 245.264 195.336 244.304 195.336C242.848 195.336 241.904 195 241.472 194.328C241.2 193.896 241.064 193.424 241.064 192.912C241.064 192.4 241.096 191.952 241.16 191.568L243.776 176.784H247.856L245.336 191.016C245.32 191.112 245.312 191.208 245.312 191.304ZM253.648 195.336C251.792 195.336 250.456 194.92 249.64 194.088C249.032 193.48 248.728 192.664 248.728 191.64C248.728 191.304 248.76 190.944 248.824 190.56L250.456 181.272L254.848 179.448L254.152 183.456H260.776L260.176 186.84H253.552L253.072 189.552C253.008 189.856 252.976 190.128 252.976 190.368C252.976 191.376 253.456 191.88 254.416 191.88C254.928 191.88 255.352 191.664 255.688 191.232C256.04 190.8 256.28 190.224 256.408 189.504H260.392C259.72 193.392 257.472 195.336 253.648 195.336ZM266.748 191.928C267.116 191.928 267.444 191.848 267.732 191.688L267.612 194.4C266.86 195.024 266.004 195.336 265.044 195.336C263.588 195.336 262.644 195 262.212 194.328C261.924 193.88 261.78 193.408 261.78 192.912C261.78 192.4 261.812 191.952 261.876 191.568L263.316 183.456H267.396L266.052 191.016C266.036 191.112 266.028 191.2 266.028 191.28C266.028 191.712 266.268 191.928 266.748 191.928ZM263.796 179.544C263.796 178.52 264.02 177.776 264.468 177.312C264.932 176.832 265.644 176.592 266.604 176.592C267.948 176.592 268.62 177.184 268.62 178.368C268.62 179.376 268.388 180.112 267.924 180.576C267.476 181.04 266.764 181.272 265.788 181.272C264.46 181.272 263.796 180.696 263.796 179.544ZM281.208 185.952C281.208 186.48 281.048 186.968 280.728 187.416H276.792C276.92 187.32 276.984 187.16 276.984 186.936C276.984 186.712 276.856 186.536 276.6 186.408C276.344 186.264 276.016 186.192 275.616 186.192C274.416 186.192 273.816 186.56 273.816 187.296C273.816 187.584 274.04 187.792 274.488 187.92C274.936 188.048 275.48 188.152 276.12 188.232C276.76 188.312 277.4 188.432 278.04 188.592C278.68 188.736 279.224 189.032 279.672 189.48C280.12 189.928 280.344 190.528 280.344 191.28C280.344 192.608 279.808 193.616 278.736 194.304C277.68 194.992 276.136 195.336 274.104 195.336C272.072 195.336 270.648 195.008 269.832 194.352C269.192 193.84 268.872 193.136 268.872 192.24C268.872 191.984 268.896 191.72 268.944 191.448L272.952 191.4C272.92 191.624 273.048 191.824 273.336 192C273.64 192.16 274.08 192.24 274.656 192.24C275.232 192.24 275.648 192.184 275.904 192.072C276.16 191.944 276.288 191.712 276.288 191.376C276.288 191.152 276.064 191 275.616 190.92C275.168 190.824 274.616 190.744 273.96 190.68C273.32 190.616 272.672 190.512 272.016 190.368C271.376 190.224 270.832 189.92 270.384 189.456C269.936 188.992 269.712 188.384 269.712 187.632C269.712 186.176 270.272 185.056 271.392 184.272C272.528 183.488 274.16 183.096 276.288 183.096C279.568 183.096 281.208 184.048 281.208 185.952ZM287.228 195.336C283.9 195.336 282.236 194.184 282.236 191.88C282.236 191.56 282.268 191.216 282.332 190.848L282.836 187.872C283.108 186.336 283.812 185.16 284.948 184.344C286.1 183.512 287.62 183.096 289.508 183.096C292.724 183.096 294.332 184.312 294.332 186.744C294.332 187.096 294.3 187.48 294.236 187.896L293.948 189.6H286.628L286.532 190.152C286.5 190.344 286.484 190.52 286.484 190.68C286.484 191.56 287.004 192 288.044 192C288.428 192 288.756 191.88 289.028 191.64C289.3 191.4 289.46 191.12 289.508 190.8L293.492 190.848C292.964 193.84 290.876 195.336 287.228 195.336ZM290.108 188.136C290.172 187.864 290.204 187.616 290.204 187.392C290.204 187.152 290.1 186.912 289.892 186.672C289.684 186.432 289.348 186.312 288.884 186.312C288.436 186.312 288.02 186.464 287.636 186.768C287.268 187.072 287.012 187.528 286.868 188.136H290.108ZM307.262 185.904C307.262 186.448 307.166 186.976 306.974 187.488C306.798 188 306.622 188.376 306.446 188.616L306.182 188.952H302.558C302.958 188.584 303.158 188.128 303.158 187.584C303.158 187.296 303.062 187.064 302.87 186.888C302.694 186.696 302.446 186.6 302.126 186.6C301.582 186.6 301.11 186.872 300.71 187.416L299.366 195H295.286L297.326 183.456H301.118L300.83 185.064C301.742 183.768 302.846 183.12 304.142 183.12C305.182 183.12 305.958 183.368 306.47 183.864C306.998 184.36 307.262 185.04 307.262 185.904ZM320.118 183.456C320.342 184.128 320.454 185.024 320.454 186.144C320.454 187.248 320.318 188.312 320.046 189.336C319.774 190.36 319.358 191.336 318.798 192.264C318.254 193.176 317.486 193.92 316.494 194.496C315.518 195.056 314.39 195.336 313.11 195.336C311.11 195.336 309.726 194.928 308.958 194.112C308.446 193.568 308.19 192.736 308.19 191.616C308.19 191.088 308.254 190.488 308.382 189.816L309.51 183.456H313.59L312.462 189.84C312.414 190.08 312.39 190.296 312.39 190.488C312.39 191.4 312.862 191.856 313.806 191.856C315.47 191.856 316.302 190.112 316.302 186.624C316.302 185.808 316.238 184.904 316.11 183.912L316.038 183.456H320.118ZM326.865 191.928C327.233 191.928 327.561 191.848 327.849 191.688L327.729 194.4C326.977 195.024 326.121 195.336 325.161 195.336C323.705 195.336 322.761 195 322.329 194.328C322.041 193.88 321.897 193.408 321.897 192.912C321.897 192.4 321.929 191.952 321.993 191.568L323.433 183.456H327.513L326.169 191.016C326.153 191.112 326.145 191.2 326.145 191.28C326.145 191.712 326.385 191.928 326.865 191.928ZM323.913 179.544C323.913 178.52 324.137 177.776 324.585 177.312C325.049 176.832 325.761 176.592 326.721 176.592C328.065 176.592 328.737 177.184 328.737 178.368C328.737 179.376 328.505 180.112 328.041 180.576C327.593 181.04 326.881 181.272 325.905 181.272C324.577 181.272 323.913 180.696 323.913 179.544ZM334.173 195.336C330.845 195.336 329.181 194.184 329.181 191.88C329.181 191.56 329.213 191.216 329.277 190.848L329.781 187.872C330.037 186.336 330.733 185.16 331.869 184.344C333.021 183.528 334.477 183.112 336.237 183.096C339.645 183.096 341.349 184.28 341.349 186.648C341.349 187.16 341.285 187.624 341.157 188.04C341.045 188.44 340.925 188.712 340.797 188.856L340.605 189.096H336.525C336.925 188.744 337.125 188.328 337.125 187.848C337.125 186.984 336.693 186.552 335.829 186.552C335.317 186.552 334.877 186.704 334.509 187.008C334.141 187.312 333.901 187.776 333.789 188.4L333.477 190.152C333.445 190.312 333.429 190.464 333.429 190.608C333.429 191.456 333.957 191.88 335.013 191.88C335.365 191.88 335.677 191.768 335.949 191.544C336.237 191.32 336.405 191.072 336.453 190.8L340.437 190.848C339.909 193.84 337.821 195.336 334.173 195.336ZM347.368 195.336C344.04 195.336 342.376 194.184 342.376 191.88C342.376 191.56 342.408 191.216 342.472 190.848L342.976 187.872C343.248 186.336 343.952 185.16 345.088 184.344C346.24 183.512 347.76 183.096 349.648 183.096C352.864 183.096 354.472 184.312 354.472 186.744C354.472 187.096 354.44 187.48 354.376 187.896L354.088 189.6H346.768L346.672 190.152C346.64 190.344 346.624 190.52 346.624 190.68C346.624 191.56 347.144 192 348.184 192C348.568 192 348.896 191.88 349.168 191.64C349.44 191.4 349.6 191.12 349.648 190.8L353.632 190.848C353.104 193.84 351.016 195.336 347.368 195.336ZM350.248 188.136C350.312 187.864 350.344 187.616 350.344 187.392C350.344 187.152 350.24 186.912 350.032 186.672C349.824 186.432 349.488 186.312 349.024 186.312C348.576 186.312 348.16 186.464 347.776 186.768C347.408 187.072 347.152 187.528 347.008 188.136H350.248ZM367.762 185.952C367.762 186.48 367.602 186.968 367.282 187.416H363.346C363.474 187.32 363.538 187.16 363.538 186.936C363.538 186.712 363.41 186.536 363.154 186.408C362.898 186.264 362.57 186.192 362.17 186.192C360.97 186.192 360.37 186.56 360.37 187.296C360.37 187.584 360.594 187.792 361.042 187.92C361.49 188.048 362.034 188.152 362.674 188.232C363.314 188.312 363.954 188.432 364.594 188.592C365.234 188.736 365.778 189.032 366.226 189.48C366.674 189.928 366.898 190.528 366.898 191.28C366.898 192.608 366.362 193.616 365.29 194.304C364.234 194.992 362.69 195.336 360.658 195.336C358.626 195.336 357.202 195.008 356.386 194.352C355.746 193.84 355.426 193.136 355.426 192.24C355.426 191.984 355.45 191.72 355.498 191.448L359.506 191.4C359.474 191.624 359.602 191.824 359.89 192C360.194 192.16 360.634 192.24 361.21 192.24C361.786 192.24 362.202 192.184 362.458 192.072C362.714 191.944 362.842 191.712 362.842 191.376C362.842 191.152 362.618 191 362.17 190.92C361.722 190.824 361.17 190.744 360.514 190.68C359.874 190.616 359.226 190.512 358.57 190.368C357.93 190.224 357.386 189.92 356.938 189.456C356.49 188.992 356.266 188.384 356.266 187.632C356.266 186.176 356.826 185.056 357.946 184.272C359.082 183.488 360.714 183.096 362.842 183.096C366.122 183.096 367.762 184.048 367.762 185.952ZM381.996 177.72L378.972 195H374.628L377.676 177.72H381.996ZM398.73 177.72L395.706 195H391.362L388.338 185.544L386.706 195H382.362L385.41 177.72H389.874L392.85 186.552L394.41 177.72H398.73ZM405.169 195.336C402.881 195.336 401.297 194.84 400.417 193.848C399.809 193.144 399.505 192.16 399.505 190.896C399.505 190.352 399.561 189.768 399.673 189.144L400.657 183.624C401.377 179.576 403.977 177.552 408.457 177.552C410.313 177.552 411.721 177.952 412.681 178.752C413.641 179.536 414.121 180.616 414.121 181.992C414.121 182.632 414.025 183.272 413.833 183.912C413.657 184.536 413.481 185 413.305 185.304L413.041 185.784H408.793C409.321 185.176 409.585 184.312 409.585 183.192C409.585 182.6 409.433 182.136 409.129 181.8C408.825 181.448 408.377 181.272 407.785 181.272C406.169 181.272 405.209 182.168 404.905 183.96L404.065 188.808C403.985 189.224 403.945 189.632 403.945 190.032C403.945 191.088 404.577 191.616 405.841 191.616C407.361 191.616 408.273 190.76 408.577 189.048H412.897L412.777 189.744C412.137 193.472 409.601 195.336 405.169 195.336Z" fill="white"/>
</svg>
