<svg id="Layer_1" enable-background="new 0 0 512.001 512.001" height="512" viewBox="0 0 512.001 512.001" width="512" xmlns="http://www.w3.org/2000/svg"><g><g><path d="m399.503 59.983c-38.849-38.701-89.523-59.983-142.704-59.983-.506 0-1.018 0-1.523 0-53.251 0-103.931 21.284-142.778 59.983-39.269 39.119-61.79 92.648-61.79 146.863 0 57.975 30.041 131.487 82.419 201.687 37.182 49.833 91.493 103.468 122.873 103.468s85.691-53.635 122.874-103.468c52.378-70.199 82.419-143.712 82.419-201.687 0-54.214-22.521-107.743-61.79-146.863zm-36.658 336.59c-20.281 27.182-42.831 51.965-63.496 69.785-21.925 18.906-36.768 25.643-43.349 25.643s-21.424-6.736-43.349-25.643c-20.665-17.82-43.215-42.604-63.496-69.785-49.854-66.818-78.448-135.971-78.448-189.727 0-48.936 20.377-97.301 55.905-132.694 35.072-34.938 80.739-54.153 128.741-54.153h1.368c47.924 0 93.596 19.217 128.666 54.153 35.528 35.394 55.905 83.759 55.905 132.694.001 53.757-28.592 122.909-78.447 189.727z"/><path d="m256 40c-91.143 0-165.293 74.15-165.293 165.293 0 36.294 11.543 70.738 33.381 99.61 21.121 27.923 51.135 48.795 84.514 58.771 5.29 1.585 10.862-1.426 12.444-6.718 1.582-5.291-1.426-10.863-6.718-12.444-24.784-7.407-46.531-21.252-63.619-39.355v-199.882c26.489-27.872 63.895-45.275 105.291-45.275s78.802 17.403 105.291 45.275v199.882c-17.09 18.104-38.839 31.95-63.626 39.356-5.292 1.581-8.3 7.152-6.718 12.444 1.296 4.337 5.271 7.14 9.577 7.14.948 0 1.912-.136 2.867-.422 33.38-9.975 63.396-30.846 84.519-58.77 21.839-28.872 33.383-63.318 33.383-99.613 0-91.142-74.15-165.292-165.293-165.292zm-125.291 238.473c-12.767-21.779-20.002-46.927-20.002-73.18 0-26.795 7.3-51.914 20.002-73.488zm250.583.001v-146.669c12.702 21.574 20.002 46.693 20.002 73.488-.001 26.253-7.235 51.402-20.002 73.181z"/><path d="m294.771 273.48c.506.077 1.013.115 1.516.115 2.58 0 5.083-.999 6.963-2.822 2.247-2.18 3.344-5.286 2.963-8.393l-1.82-14.875 36.577-20.941c3.319-1.901 5.264-5.528 5.009-9.345s-2.664-7.153-6.207-8.596l-5.715-2.327 8.577-19.003c1.581-3.502 1.016-7.6-1.454-10.542-2.47-2.943-6.407-4.215-10.129-3.263l-20.204 5.147-1.299-6.033c-.843-3.912-3.937-6.945-7.865-7.71-2.99-.585-6.02.234-8.289 2.112l3.185-17.684c.678-3.765-.851-7.586-3.938-9.844-3.086-2.258-7.191-2.557-10.574-.771l-6.783 3.583-10.271-21.336c-1.667-3.461-5.169-5.662-9.011-5.662s-7.344 2.201-9.011 5.662l-10.271 21.336-6.782-3.583c-3.38-1.784-7.485-1.488-10.574.771-3.088 2.258-4.616 6.079-3.938 9.844l3.185 17.684c-2.27-1.878-5.297-2.697-8.289-2.112-3.928.765-7.022 3.798-7.864 7.71l-1.3 6.033-20.205-5.147c-3.723-.951-7.66.32-10.129 3.263-2.47 2.942-3.035 7.04-1.454 10.542l8.577 19.003-5.715 2.327c-3.543 1.442-5.952 4.779-6.207 8.596s1.689 7.443 5.009 9.345l36.577 20.941-1.82 14.875c-.381 3.106.716 6.213 2.963 8.393 2.246 2.18 5.379 3.182 8.479 2.707l28.767-4.411v16.224c0 5.522 4.478 10 10 10s10-4.478 10-10v-16.224zm-71.46-40.031-25.218-14.438c1.094-1.005 1.962-2.25 2.523-3.657 1.008-2.523.946-5.348-.172-7.824l-4.302-9.531 10.134 2.582c2.628.669 5.424.242 7.734-1.189.689-.427 1.318-.932 1.876-1.501l12.463 18.349c2.654 3.905 7.679 5.426 12.05 3.64 4.373-1.784 6.901-6.384 6.064-11.031l-7.777-43.194c1.851.485 3.82.435 5.667-.174 2.581-.85 4.705-2.713 5.884-5.16l5.763-11.973 5.763 11.972c1.179 2.447 3.303 4.311 5.884 5.16 1.848.61 3.818.659 5.668.174l-7.778 43.194c-.837 4.647 1.691 9.247 6.063 11.031 4.374 1.786 9.398.266 12.051-3.64l12.463-18.349c.558.569 1.187 1.074 1.875 1.501 2.311 1.431 5.106 1.86 7.735 1.189l10.134-2.582-4.302 9.531c-1.118 2.477-1.18 5.301-.172 7.824.562 1.407 1.43 2.652 2.523 3.657l-25.218 14.438c-3.492 2-5.446 5.898-4.957 9.894l1.024 8.368-27.241-4.177c-.502-.077-1.009-.115-1.516-.115s-1.014.038-1.516.115l-27.241 4.177 1.024-8.368c.491-3.994-1.463-7.893-4.955-9.893z"/><path d="m256 350.586h-.007c-5.522 0-9.996 4.478-9.996 10s4.48 10 10.003 10 10-4.478 10-10-4.477-10-10-10z"/></g></g></svg>